<?xml version="1.0" encoding="UTF-8" standalone="no"?>
<svg
   xmlns:dc="http://purl.org/dc/elements/1.1/"
   xmlns:cc="http://creativecommons.org/ns#"
   xmlns:rdf="http://www.w3.org/1999/02/22-rdf-syntax-ns#"
   xmlns:svg="http://www.w3.org/2000/svg"
   xmlns="http://www.w3.org/2000/svg"
   viewBox="0 0 177.50667 167.78667"
   height="167.78667"
   width="177.50667"
   xml:space="preserve"
   id="svg2"
   version="1.1"><metadata
     id="metadata8"><rdf:RDF><cc:Work
         rdf:about=""><dc:format>image/svg+xml</dc:format><dc:type
           rdf:resource="http://purl.org/dc/dcmitype/StillImage" /></cc:Work></rdf:RDF></metadata><defs
     id="defs6" /><g
     transform="matrix(1.3333333,0,0,-1.3333333,0,167.78667)"
     id="g10"><g
       transform="scale(0.1)"
       id="g12"><path
         id="path14"
         style="fill:#0f5954;fill-opacity:1;fill-rule:evenodd;stroke:none"
         d="M 645.664,32.2617 C 600.398,77.9805 547.012,93.5586 479.125,81.9609 L 0,0 155.176,221.68 546.895,301.02 c 44.449,9.003 75.644,-4.391 98.769,-38.575 v -50.816 h -89.801 v -39.93 h 89.801 v -139.4373 0" /><path
         id="path16"
         style="fill:#0f5954;fill-opacity:1;fill-rule:evenodd;stroke:none"
         d="m 685.582,32.1719 c 45.273,45.789 98.691,61.3984 166.621,49.789 L 1331.32,0 1174.43,221.68 893.258,278.246 C 839.41,231.488 746.012,142.988 685.582,74.2813 v -42.1094 0" /><path
         id="path18"
         style="fill:#c2961a;fill-opacity:1;fill-rule:evenodd;stroke:none"
         d="m 950.934,731.406 c 15.683,-40.117 3.418,-85.008 -24.805,-118.051 -79.863,-93.464 -160.703,-136.464 -240.547,-229.929 0,-32.434 0,-64.867 0,-97.285 93.145,108.25 187.305,166.023 280.449,274.273 54.319,63.129 37.399,134.102 -14.922,177.356 0.02,-2.11 -0.039,-4.227 -0.175,-6.364 v 0" /><path
         id="path20"
         style="fill:#c2961a;fill-opacity:1;fill-rule:evenodd;stroke:none"
         d="M 882.184,833.883 C 897.828,786.52 897.027,737.941 864.039,699.641 806.305,632.602 743.316,610.633 685.582,543.598 c 0,-32.047 0,-64.102 0,-96.153 71.035,81.446 147.344,117.817 218.379,199.254 63.535,72.867 25.371,134.348 -21.777,187.184 v 0" /><path
         id="path22"
         style="fill:#c2961a;fill-opacity:1;fill-rule:evenodd;stroke:none"
         d="m 947.105,482.723 c -85.156,-95.2 -178.457,-156 -261.523,-253.032 0,-3.589 0,-7.203 0,-10.8 25.723,-0.11 58.418,2.058 84.16,1.961 74.278,81.144 141.719,124.117 202.227,194.875 50.311,58.847 54.021,107.226 27.832,166.503 -4.16,-35.796 -18.36,-61.132 -52.696,-99.507 v 0" /><path
         id="path24"
         style="fill:#c2961a;fill-opacity:1;fill-rule:evenodd;stroke:none"
         d="m 685.582,132.211 c 12.246,13.93 25.059,28.359 38.223,43.117 -12.735,0 -25.489,0 -38.223,0 0,-14.379 0,-28.738 0,-43.117 v 0" /><path
         id="path26"
         style="fill:#c2961a;fill-opacity:1;fill-rule:evenodd;stroke:none"
         d="m 387.898,739.02 c 116.75,131.234 250.231,236.734 366.981,367.98 28.945,32.53 27.812,100.64 28.34,151.37 -16.426,-36.46 -41.446,-71.62 -67.891,-100.88 C 599.238,1029.07 469.656,924.691 353.563,796.281 307.035,744.805 302.598,670.582 328.824,616.344 c 3.942,40.437 31.449,91.621 59.074,122.676 v 0" /><path
         id="path28"
         style="fill:#c2961a;fill-opacity:1;fill-rule:evenodd;stroke:none"
         d="m 390.176,452.699 c -20.352,34.035 -19.828,107.403 14.301,145.899 111.015,125.207 255.031,230.574 350.714,357.179 26.25,34.743 34.961,104.673 29.239,160.273 -14.942,-37.87 -43.848,-80.13 -69.844,-109.86 C 624.086,902.746 443.707,757.688 358.988,647.48 320.629,597.586 322.926,496.156 390.176,452.699 v 0" /><path
         id="path30"
         style="fill:#c2961a;fill-opacity:1;fill-rule:evenodd;stroke:none"
         d="m 471.785,365.492 c -31.687,30.528 -41.379,103.332 -0.414,150.434 89.426,102.82 196.024,176.801 285.442,279.621 28.691,32.984 25.019,106.922 21.367,157.918 C 765.602,903.184 739.664,870.766 714.586,842.805 622.855,740.488 516.277,662.246 424.555,559.945 364.859,493.363 419.043,374.184 471.785,365.492 v 0" /></g></g></svg>